<svg xmlns="http://www.w3.org/2000/svg" width="512" height="512" viewBox="0 0 512 512">
  <defs>
    <linearGradient id="bg" x1="0" y1="0" x2="0.8" y2="1">
      <stop offset="0%" stop-color="#1B6DB5"/>
      <stop offset="55%" stop-color="#0E4F8A"/>
      <stop offset="100%" stop-color="#042C53"/>
    </linearGradient>
    <radialGradient id="glow" cx="50%" cy="48%" r="50%">
      <stop offset="0%" stop-color="#5AA8E8" stop-opacity="0.25"/>
      <stop offset="70%" stop-color="#185FA5" stop-opacity="0.05"/>
      <stop offset="100%" stop-color="#042C53" stop-opacity="0"/>
    </radialGradient>
    <linearGradient id="bolt" x1="0.3" y1="0" x2="0.7" y2="1">
      <stop offset="0%" stop-color="#FFFFFF"/>
      <stop offset="40%" stop-color="#E6F1FB"/>
      <stop offset="100%" stop-color="#85B7EB"/>
    </linearGradient>
    <linearGradient id="bolt-core" x1="0.4" y1="0" x2="0.6" y2="1">
      <stop offset="0%" stop-color="#FFFFFF"/>
      <stop offset="100%" stop-color="#B5D4F4"/>
    </linearGradient>
  </defs>
  <!-- Background -->
  <rect width="512" height="512" rx="108" fill="url(#bg)"/>
  <!-- Glow -->
  <circle cx="256" cy="244" r="180" fill="url(#glow)"/>
  <!-- Subtle rings -->
  <circle cx="256" cy="248" r="166" fill="none" stroke="#378ADD" stroke-width="1.2" opacity="0.12"/>
  <circle cx="256" cy="248" r="136" fill="none" stroke="#5AA8E8" stroke-width="0.9" opacity="0.08"/>
  <!-- Bolt shadow -->
  <path d="M289 63 L178 256 L238 256 L223 449 L334 241 L274 241Z" fill="#042C53" opacity="0.3" transform="translate(3,4)"/>
  <!-- Bolt main -->
  <path d="M289 63 L178 256 L238 256 L223 449 L334 241 L274 241Z" fill="url(#bolt)"/>
  <!-- Bolt bright core -->
  <path d="M280 102 L202 248 L241 248 L232 410 L316 245 L277 245Z" fill="url(#bolt-core)" opacity="0.85"/>
  <!-- Spark particles -->
  <circle cx="150" cy="150" r="6" fill="#B5D4F4" opacity="0.55"/>
  <circle cx="374" cy="316" r="7.5" fill="#85B7EB" opacity="0.45"/>
  <circle cx="124" cy="346" r="4.5" fill="#B5D4F4" opacity="0.35"/>
  <circle cx="398" cy="166" r="5.3" fill="#85B7EB" opacity="0.4"/>
  <circle cx="362" cy="422" r="3.8" fill="#B5D4F4" opacity="0.3"/>
  <circle cx="162" cy="436" r="3" fill="#85B7EB" opacity="0.25"/>
  <!-- Tip highlights -->
  <circle cx="292" cy="74" r="3" fill="#FFFFFF" opacity="0.7"/>
  <circle cx="226" cy="438" r="3" fill="#E6F1FB" opacity="0.5"/>
</svg>
